<svg xmlns="http://www.w3.org/2000/svg" viewBox="0 0 400 600">
  <defs>
    <linearGradient id="empathyBg" x1="0%" y1="0%" x2="100%" y2="100%">
      <stop offset="0%" style="stop-color:#E8F5E9;stop-opacity:1" />
      <stop offset="50%" style="stop-color:#A5D6A7;stop-opacity:1" />
      <stop offset="100%" style="stop-color:#66BB6A;stop-opacity:1" />
    </linearGradient>
  </defs>
  
  <rect width="400" height="600" fill="url(#empathyBg)" rx="24"/>
  
  <circle cx="80" cy="120" r="40" fill="#4CAF50" opacity="0.2"/>
  <circle cx="330" cy="150" r="45" fill="#81C784" opacity="0.2"/>
  <circle cx="70" cy="480" r="35" fill="#AED581" opacity="0.2"/>
  
  <text x="200" y="75" font-family="'Noto Sans KR', sans-serif" font-size="36" font-weight="bold" 
        fill="#2E7D32" text-anchor="middle">공감 능력</text>
  <text x="200" y="110" font-family="'Noto Sans KR', sans-serif" font-size="18" 
        fill="#388E3C" text-anchor="middle" opacity="0.9">나의 공감력은?</text>
  
  <!-- Two people connecting hearts -->
  <g transform="translate(200, 320)">
    <!-- Left person -->
    <g transform="translate(-60, 0)">
      <circle cx="0" cy="0" r="35" fill="#81C784"/>
      <circle cx="-10" cy="-5" r="4" fill="#2C3E50"/>
      <circle cx="10" cy="-5" r="4" fill="#2C3E50"/>
      <path d="M -12 10 Q 0 16 12 10" stroke="#2C3E50" stroke-width="2.5" fill="none"/>
    </g>
    
    <!-- Right person -->
    <g transform="translate(60, 0)">
      <circle cx="0" cy="0" r="35" fill="#AED581"/>
      <circle cx="-10" cy="-5" r="4" fill="#2C3E50"/>
      <circle cx="10" cy="-5" r="4" fill="#2C3E50"/>
      <path d="M -12 10 Q 0 16 12 10" stroke="#2C3E50" stroke-width="2.5" fill="none"/>
    </g>
    
    <!-- Connecting hearts -->
    <g>
      <path d="M0,8 C-5,3 -12,3 -12,-5 C-12,-10 -8,-13 -5,-13 C-2,-13 0,-10 0,-8 C0,-10 2,-13 5,-13 C8,-13 12,-10 12,-5 C12,3 5,3 0,8 Z" 
            transform="translate(-30, -30)" fill="#FF6B9D"/>
      <path d="M0,8 C-5,3 -12,3 -12,-5 C-12,-10 -8,-13 -5,-13 C-2,-13 0,-10 0,-8 C0,-10 2,-13 5,-13 C8,-13 12,-10 12,-5 C12,3 5,3 0,8 Z" 
            transform="translate(0, -40)" fill="#FF69B4"/>
      <path d="M0,8 C-5,3 -12,3 -12,-5 C-12,-10 -8,-13 -5,-13 C-2,-13 0,-10 0,-8 C0,-10 2,-13 5,-13 C8,-13 12,-10 12,-5 C12,3 5,3 0,8 Z" 
            transform="translate(30, -30)" fill="#FF6B9D"/>
    </g>
    
    <!-- Holding hands -->
    <path d="M -30 30 L 30 30" stroke="#4CAF50" stroke-width="8" stroke-linecap="round"/>
  </g>
  
  <!-- Helping hand -->
  <g transform="translate(90, 480)">
    <ellipse cx="0" cy="0" rx="25" ry="20" fill="#66BB6A"/>
    <rect x="-8" y="15" width="16" height="25" fill="#66BB6A" rx="5"/>
    <circle cx="-10" cy="-8" r="6" fill="#81C784"/>
    <circle cx="10" cy="-8" r="6" fill="#81C784"/>
  </g>
  
  <!-- Support symbol -->
  <g transform="translate(310, 200)">
    <circle cx="0" cy="0" r="35" fill="#4CAF50" opacity="0.3"/>
    <text x="0" y="15" font-size="40" text-anchor="middle">🤝</text>
  </g>
  
  <g fill="#2E7D32">
    <circle cx="140" cy="180" r="4"/>
    <circle cx="260" cy="450" r="4"/>
  </g>
  
  <path d="M 0 555 Q 100 540 200 555 T 400 555 L 400 600 L 0 600 Z" 
        fill="#66BB6A" opacity="0.2"/>
</svg>
