<svg width="400" height="400" viewBox="0 0 400 400" xmlns="http://www.w3.org/2000/svg">
  <defs>
    <linearGradient id="empathy-bg" x1="0%" y1="0%" x2="100%" y2="100%">
      <stop offset="0%" style="stop-color:#14B8A6;stop-opacity:1" />
      <stop offset="100%" style="stop-color:#5EEAD4;stop-opacity:1" />
    </linearGradient>
  </defs>
  
  <rect width="400" height="400" rx="40" fill="url(#empathy-bg)"/>
  
  <!-- 두 개의 하트 겹침 -->
  <path d="M170 260 C170 260, 120 210, 120 170 C120 140, 150 130, 170 155 C190 130, 220 140, 220 170 C220 210, 170 260, 170 260 Z" 
        fill="white" opacity="0.7"/>
  <path d="M230 260 C230 260, 180 210, 180 170 C180 140, 210 130, 230 155 C250 130, 280 140, 280 170 C280 210, 230 260, 230 260 Z" 
        fill="white" opacity="0.9"/>
  
  <text x="200" y="340" font-family="Arial, sans-serif" font-size="28" font-weight="bold" fill="white" text-anchor="middle">공감 능력</text>
</svg>